<?xml version="1.0" encoding="UTF-8" standalone="no"?>
<!DOCTYPE svg PUBLIC "-//W3C//DTD SVG 1.1//EN"
 "http://www.w3.org/Graphics/SVG/1.1/DTD/svg11.dtd">
<!-- Generated by graphviz version 12.1.1 (20240910.0053)
 -->
<!-- Title: INFRA Pages: 1 -->
<svg width="861pt" height="296pt"
 viewBox="0.00 0.00 860.70 296.00" xmlns="http://www.w3.org/2000/svg" xmlns:xlink="http://www.w3.org/1999/xlink">
<g id="graph0" class="graph" transform="scale(1 1) rotate(0) translate(4 292)">
<title>INFRA</title>
<polygon fill="white" stroke="none" points="-4,4 -4,-292 856.7,-292 856.7,4 -4,4"/>
<!-- opensearch&#45;secrets -->
<g id="node1" class="node">
<title>opensearch&#45;secrets</title>
<path fill="#fff5cd" stroke="black" stroke-width="2" d="M215.95,-281.45C215.95,-285.07 167.55,-288 107.98,-288 48.4,-288 0,-285.07 0,-281.45 0,-281.45 0,-222.55 0,-222.55 0,-218.93 48.4,-216 107.98,-216 167.55,-216 215.95,-218.93 215.95,-222.55 215.95,-222.55 215.95,-281.45 215.95,-281.45"/>
<path fill="none" stroke="black" stroke-width="2" d="M215.95,-281.45C215.95,-277.84 167.55,-274.91 107.98,-274.91 48.4,-274.91 0,-277.84 0,-281.45"/>
<text text-anchor="middle" x="107.98" y="-256.2" font-family="Arial" font-size="14.00">opensearch&#45;secrets</text>
<text text-anchor="middle" x="107.98" y="-239.4" font-family="Arial" font-size="14.00">(AWS::SecretsManager::Secret)</text>
</g>
<!-- document&#45;upload&#45;events&#45;queue -->
<g id="node2" class="node">
<title>document&#45;upload&#45;events&#45;queue</title>
<path fill="#cce0ac" stroke="black" stroke-width="2" d="M394.82,-180C394.82,-180 205.13,-180 205.13,-180 199.13,-180 193.13,-174 193.13,-168 193.13,-168 193.13,-120 193.13,-120 193.13,-114 199.13,-108 205.13,-108 205.13,-108 394.82,-108 394.82,-108 400.82,-108 406.82,-114 406.82,-120 406.82,-120 406.82,-168 406.82,-168 406.82,-174 400.82,-180 394.82,-180"/>
<text text-anchor="middle" x="299.98" y="-148.2" font-family="Arial" font-size="14.00">document&#45;upload&#45;events&#45;queue</text>
<text text-anchor="middle" x="299.98" y="-131.4" font-family="Arial" font-size="14.00">(AWS::SQS::Queue)</text>
</g>
<!-- document&#45;upload&#45;events&#45;dlq -->
<g id="node3" class="node">
<title>document&#45;upload&#45;events&#45;dlq</title>
<path fill="#cce0ac" stroke="black" stroke-width="2" d="M840.7,-288C840.7,-288 671.26,-288 671.26,-288 665.26,-288 659.26,-282 659.26,-276 659.26,-276 659.26,-228 659.26,-228 659.26,-222 665.26,-216 671.26,-216 671.26,-216 840.7,-216 840.7,-216 846.7,-216 852.7,-222 852.7,-228 852.7,-228 852.7,-276 852.7,-276 852.7,-282 846.7,-288 840.7,-288"/>
<text text-anchor="middle" x="755.98" y="-256.2" font-family="Arial" font-size="14.00">document&#45;upload&#45;events&#45;dlq</text>
<text text-anchor="middle" x="755.98" y="-239.4" font-family="Arial" font-size="14.00">(AWS::SQS::Queue)</text>
</g>
<!-- documents&#45;bucket -->
<g id="node4" class="node">
<title>documents&#45;bucket</title>
<path fill="#fff5cd" stroke="black" stroke-width="2" d="M366.32,-281.45C366.32,-285.07 336.59,-288 299.98,-288 263.37,-288 233.63,-285.07 233.63,-281.45 233.63,-281.45 233.63,-222.55 233.63,-222.55 233.63,-218.93 263.37,-216 299.98,-216 336.59,-216 366.32,-218.93 366.32,-222.55 366.32,-222.55 366.32,-281.45 366.32,-281.45"/>
<path fill="none" stroke="black" stroke-width="2" d="M366.32,-281.45C366.32,-277.84 336.59,-274.91 299.98,-274.91 263.37,-274.91 233.63,-277.84 233.63,-281.45"/>
<text text-anchor="middle" x="299.98" y="-256.2" font-family="Arial" font-size="14.00">documents&#45;bucket</text>
<text text-anchor="middle" x="299.98" y="-239.4" font-family="Arial" font-size="14.00">(AWS::S3::Bucket)</text>
</g>
<!-- documents&#45;bucket&#45;&gt;document&#45;upload&#45;events&#45;queue -->
<g id="edge1" class="edge">
<title>documents&#45;bucket&#45;&gt;document&#45;upload&#45;events&#45;queue</title>
<path fill="none" stroke="black" d="M299.98,-215.7C299.98,-207.93 299.98,-199.57 299.98,-191.43"/>
<polygon fill="black" stroke="black" points="303.48,-191.66 299.98,-181.66 296.48,-191.66 303.48,-191.66"/>
</g>
<!-- lambda&#45;function&#45;iam&#45;role -->
<g id="node5" class="node">
<title>lambda&#45;function&#45;iam&#45;role</title>
<path fill="#e6e6e6" stroke="black" stroke-width="2" d="M407.4,-72C407.4,-72 260.56,-72 260.56,-72 254.56,-72 248.56,-66 248.56,-60 248.56,-60 248.56,-12 248.56,-12 248.56,-6 254.56,0 260.56,0 260.56,0 407.4,0 407.4,0 413.4,0 419.4,-6 419.4,-12 419.4,-12 419.4,-60 419.4,-60 419.4,-66 413.4,-72 407.4,-72"/>
<text text-anchor="middle" x="333.98" y="-40.2" font-family="Arial" font-size="14.00">lambda&#45;function&#45;iam&#45;role</text>
<text text-anchor="middle" x="333.98" y="-23.4" font-family="Arial" font-size="14.00">(AWS::IAM::Role)</text>
</g>
<!-- lambda&#45;function&#45;code -->
<g id="node6" class="node">
<title>lambda&#45;function&#45;code</title>
<path fill="#fff5cd" stroke="black" stroke-width="2" d="M588.29,-65.45C588.29,-69.07 554.53,-72 512.98,-72 471.42,-72 437.66,-69.07 437.66,-65.45 437.66,-65.45 437.66,-6.55 437.66,-6.55 437.66,-2.93 471.42,0 512.98,0 554.53,0 588.29,-2.93 588.29,-6.55 588.29,-6.55 588.29,-65.45 588.29,-65.45"/>
<path fill="none" stroke="black" stroke-width="2" d="M588.29,-65.45C588.29,-61.84 554.53,-58.91 512.98,-58.91 471.42,-58.91 437.66,-61.84 437.66,-65.45"/>
<text text-anchor="middle" x="512.98" y="-40.2" font-family="Arial" font-size="14.00">lambda&#45;function&#45;code</text>
<text text-anchor="middle" x="512.98" y="-23.4" font-family="Arial" font-size="14.00">(AWS::S3::Bucket)</text>
</g>
<!-- lambda&#45;function -->
<g id="node7" class="node">
<title>lambda&#45;function</title>
<path fill="#b7e0ff" stroke="black" stroke-width="2" d="M589.51,-180C589.51,-180 436.44,-180 436.44,-180 430.44,-180 424.44,-174 424.44,-168 424.44,-168 424.44,-120 424.44,-120 424.44,-114 430.44,-108 436.44,-108 436.44,-108 589.51,-108 589.51,-108 595.51,-108 601.51,-114 601.51,-120 601.51,-120 601.51,-168 601.51,-168 601.51,-174 595.51,-180 589.51,-180"/>
<text text-anchor="middle" x="512.98" y="-148.2" font-family="Arial" font-size="14.00">lambda&#45;function</text>
<text text-anchor="middle" x="512.98" y="-131.4" font-family="Arial" font-size="14.00">(AWS::Lambda::Function)</text>
</g>
<!-- lambda&#45;function&#45;&gt;lambda&#45;function&#45;iam&#45;role -->
<g id="edge2" class="edge">
<title>lambda&#45;function&#45;&gt;lambda&#45;function&#45;iam&#45;role</title>
<path fill="none" stroke="black" d="M453.37,-107.7C437.3,-98.19 419.78,-87.81 403.24,-78.01"/>
<polygon fill="black" stroke="black" points="405.31,-75.18 394.93,-73.09 401.75,-81.2 405.31,-75.18"/>
</g>
<!-- lambda&#45;function&#45;&gt;lambda&#45;function&#45;code -->
<g id="edge3" class="edge">
<title>lambda&#45;function&#45;&gt;lambda&#45;function&#45;code</title>
<path fill="none" stroke="black" d="M512.98,-107.7C512.98,-99.93 512.98,-91.57 512.98,-83.43"/>
<polygon fill="black" stroke="black" points="516.48,-83.66 512.98,-73.66 509.48,-83.66 516.48,-83.66"/>
</g>
<!-- opensearchdestination -->
<g id="node8" class="node">
<title>opensearchdestination</title>
<path fill="#ffcfb3" stroke="black" stroke-width="2" d="M852.13,-65.45C852.13,-69.07 796.93,-72 728.98,-72 661.02,-72 605.82,-69.07 605.82,-65.45 605.82,-65.45 605.82,-6.55 605.82,-6.55 605.82,-2.93 661.02,0 728.98,0 796.93,0 852.13,-2.93 852.13,-6.55 852.13,-6.55 852.13,-65.45 852.13,-65.45"/>
<path fill="none" stroke="black" stroke-width="2" d="M852.13,-65.45C852.13,-61.84 796.93,-58.91 728.98,-58.91 661.02,-58.91 605.82,-61.84 605.82,-65.45"/>
<text text-anchor="middle" x="728.98" y="-40.2" font-family="Arial" font-size="14.00">opensearchdestination</text>
<text text-anchor="middle" x="728.98" y="-23.4" font-family="Arial" font-size="14.00">(AWS::OpenSearchService::Domain)</text>
</g>
<!-- lambda&#45;function&#45;&gt;opensearchdestination -->
<g id="edge4" class="edge">
<title>lambda&#45;function&#45;&gt;opensearchdestination</title>
<path fill="none" stroke="black" d="M585.2,-107.56C605.03,-97.83 626.67,-87.2 647.01,-77.23"/>
<polygon fill="black" stroke="black" points="648.39,-80.44 655.83,-72.9 645.31,-74.16 648.39,-80.44"/>
</g>
<!-- sqs_event_trigger -->
<g id="node9" class="node">
<title>sqs_event_trigger</title>
<path fill="#cce0ac" stroke="black" stroke-width="2" d="M629.59,-288C629.59,-288 396.36,-288 396.36,-288 390.36,-288 384.36,-282 384.36,-276 384.36,-276 384.36,-228 384.36,-228 384.36,-222 390.36,-216 396.36,-216 396.36,-216 629.59,-216 629.59,-216 635.59,-216 641.59,-222 641.59,-228 641.59,-228 641.59,-276 641.59,-276 641.59,-282 635.59,-288 629.59,-288"/>
<text text-anchor="middle" x="512.98" y="-256.2" font-family="Arial" font-size="14.00">sqs_event_trigger</text>
<text text-anchor="middle" x="512.98" y="-239.4" font-family="Arial" font-size="14.00">(AWS::Lambda::EventSourceMapping)</text>
</g>
<!-- sqs_event_trigger&#45;&gt;document&#45;upload&#45;events&#45;queue -->
<g id="edge5" class="edge">
<title>sqs_event_trigger&#45;&gt;document&#45;upload&#45;events&#45;queue</title>
<path fill="none" stroke="black" d="M441.75,-215.56C422.39,-205.92 401.28,-195.41 381.4,-185.52"/>
<polygon fill="black" stroke="black" points="383,-182.41 372.49,-181.08 379.88,-188.67 383,-182.41"/>
</g>
<!-- sqs_event_trigger&#45;&gt;lambda&#45;function -->
<g id="edge6" class="edge">
<title>sqs_event_trigger&#45;&gt;lambda&#45;function</title>
<path fill="none" stroke="black" d="M512.98,-215.7C512.98,-207.93 512.98,-199.57 512.98,-191.43"/>
<polygon fill="black" stroke="black" points="516.48,-191.66 512.98,-181.66 509.48,-191.66 516.48,-191.66"/>
</g>
</g>
</svg>
